<?xml version="1.0" standalone="no"?><!DOCTYPE svg PUBLIC "-//W3C//DTD SVG 1.1//EN" "http://www.w3.org/Graphics/SVG/1.1/DTD/svg11.dtd"><svg t="1652780193896" class="icon" viewBox="0 0 1024 1024" version="1.1" xmlns="http://www.w3.org/2000/svg" p-id="9699" xmlns:xlink="http://www.w3.org/1999/xlink" width="200" height="200"><defs><style type="text/css"></style></defs><path d="M416 480H160a64 64 0 0 1-64-64V160a64 64 0 0 1 64-64h256a64 64 0 0 1 64 64v256a64 64 0 0 1-64 64M864 480h-256a64 64 0 0 1-64-64V160a64 64 0 0 1 64-64h256a64 64 0 0 1 64 64v256a64 64 0 0 1-64 64M416 928H160a64 64 0 0 1-64-64v-256a64 64 0 0 1 64-64h256a64 64 0 0 1 64 64v256a64 64 0 0 1-64 64M864 928h-256a64 64 0 0 1-64-64v-256a64 64 0 0 1 64-64h256a64 64 0 0 1 64 64v256a64 64 0 0 1-64 64" p-id="9700"></path></svg>