<?xml version="1.0" standalone="no"?><!DOCTYPE svg PUBLIC "-//W3C//DTD SVG 1.1//EN" "http://www.w3.org/Graphics/SVG/1.1/DTD/svg11.dtd"><svg t="1652779941570" class="icon" viewBox="0 0 1024 1024" version="1.1" xmlns="http://www.w3.org/2000/svg" p-id="1980" xmlns:xlink="http://www.w3.org/1999/xlink" width="200" height="200"><defs><style type="text/css"></style></defs><path d="M512 957.44c-246.01088 0-445.44-199.42912-445.44-445.44s199.42912-445.44 445.44-445.44 445.44 199.42912 445.44 445.44-199.42912 445.44-445.44 445.44z m0-827.24352c-210.86208 0-381.80352 170.94144-381.80352 381.80352S301.13792 893.80864 512 893.80864s381.80864-170.95168 381.80864-381.80864c0-210.86208-170.94656-381.80352-381.80864-381.80352z m113.88416 372.6592c-9.40032 9.54368-26.28608 25.62048-50.6368 48.23552-6.72256 6.36416-12.12928 11.96032-16.18944 16.79872-4.04992 4.80768-7.08096 9.22624-9.05728 13.2352a65.11104 65.11104 0 0 0-4.59264 12.02688c-1.08032 4.00896-2.7136 11.04896-4.89984 21.13024-3.75808 21.36064-15.54432 32.0512-35.33824 32.0512-10.28608 0-18.96448-3.5072-25.984-10.48064s-10.54208-17.37728-10.54208-31.13984c0-17.26976 2.56512-32.19968 7.72096-44.84096s11.98592-23.73632 20.49024-33.30048c8.50944-9.53856 19.99872-20.89472 34.45248-34.048 12.66176-11.52 21.82656-20.19328 27.45856-26.04544a87.6032 87.6032 0 0 0 14.25408-19.57888c3.86048-7.18848 5.79072-14.99648 5.79072-23.41888 0-16.44032-5.89312-30.3104-17.664-41.61536-11.776-11.28448-26.9824-16.9472-45.57824-16.9472-21.7856 0-37.82144 5.70368-48.10752 17.09568-10.28608 11.41248-19.00544 28.2112-26.13248 50.40128-6.72256 23.22944-19.49184 34.82624-38.30784 34.82624-11.09504 0-20.44928-4.04992-28.06272-12.17024C367.33952 446.96576 363.52 438.16448 363.52 428.7232c0-19.5328 6.04672-39.30112 18.11456-59.32544 12.06784-20.0448 29.696-36.6336 52.85888-49.78176 23.15776-13.15328 50.18624-19.72736 81.06496-19.72736 28.69248 0 54.05184 5.49376 76.032 16.48128 21.96992 10.98752 38.9376 25.94304 50.92352 44.86144 11.9808 18.89792 17.9712 39.45472 17.9712 61.63968 0 17.4592-3.42016 32.77312-10.25024 45.9264-6.83008 13.14816-14.95552 24.49408-24.35072 34.05824z m-117.44768 171.51488c12.47232 0 22.97344 4.43392 31.47776 13.2608 8.50432 8.85248 12.76416 19.73248 12.76416 32.67072 0 14.38208-4.4544 25.68704-13.35808 33.90976-8.9088 8.21248-19.19488 12.32384-30.88384 12.32384-12.07296 0-22.61504-4.04992-31.62624-12.17024-9.01632-8.12544-13.51168-19.47648-13.51168-34.06336 0-12.93312 4.34688-23.81824 13.06624-32.67072 8.71936-8.82688 19.40992-13.2608 32.07168-13.2608z" fill="#333333" p-id="1981"></path></svg>